<svg aria-hidden="true" style="position: absolute; width: 0; height: 0; overflow: hidden;" version="1.1" xmlns="http://www.w3.org/2000/svg" xmlns:xlink="http://www.w3.org/1999/xlink">
<defs>
    <symbol id="icon-close" viewBox="0 0 32 32">
        <path stroke-linejoin="round" stroke-linecap="round" stroke-miterlimit="4" stroke-width="2.6667" d="M24 8l-16 16"></path>
        <path stroke-linejoin="round" stroke-linecap="round" stroke-miterlimit="4" stroke-width="2.6667" d="M8 8l16 16"></path>
    </symbol>

    <symbol id="icon-pencil" viewBox="0 0 32 32">
        <path stroke-linejoin="round" stroke-linecap="round" stroke-miterlimit="4" stroke-width="2.6" d="M3.333 28.667l7.399-2.846c0.473-0.182 0.71-0.273 0.931-0.392 0.197-0.106 0.384-0.227 0.56-0.364 0.199-0.154 0.378-0.333 0.736-0.692l15.040-15.040c1.473-1.473 1.473-3.861 0-5.333s-3.861-1.473-5.333 0l-15.040 15.040c-0.359 0.359-0.538 0.538-0.692 0.736-0.137 0.176-0.259 0.364-0.364 0.561-0.119 0.221-0.21 0.458-0.392 0.931l-2.846 7.399zM3.333 28.667l2.744-7.135c0.196-0.511 0.295-0.766 0.463-0.883 0.147-0.102 0.329-0.141 0.505-0.107 0.201 0.038 0.395 0.232 0.782 0.619l3.012 3.012c0.387 0.387 0.58 0.58 0.619 0.782 0.034 0.176-0.005 0.358-0.107 0.505-0.117 0.168-0.372 0.267-0.883 0.463l-7.135 2.744z"></path>
    </symbol>

    <symbol id="icon-trash" viewBox="0 0 32 32">
        <path stroke-linejoin="round" stroke-linecap="round" stroke-miterlimit="4" stroke-width="2.6" d="M12 4h8"></path>
        <path stroke-linejoin="round" stroke-linecap="round" stroke-miterlimit="4" stroke-width="2.6" d="M4 8h24"></path>
        <path stroke-linejoin="round" stroke-linecap="round" stroke-miterlimit="4" stroke-width="2.6" d="M6.667 8l0.801 12.018c0.149 2.231 0.223 3.347 0.588 4.243 0.662 1.627 2.004 2.883 3.672 3.435 0.919 0.304 2.037 0.304 4.273 0.304v0c2.236 0 3.354 0 4.273-0.304 1.668-0.552 3.010-1.808 3.672-3.435 0.365-0.896 0.439-2.012 0.588-4.243l0.801-12.018"></path>
    </symbol>

    <symbol id="icon-filter" viewBox="0 0 32 32">
        <path stroke-linejoin="round" stroke-linecap="round" stroke-miterlimit="4" stroke-width="3" d="M29.334 4h-26.667l10.667 12.613v8.72l5.333 2.667v-11.387l10.667-12.613z"></path>
    </symbol>

    <symbol id="icon-plus" viewBox="0 0 32 32">
        <path stroke-linejoin="round" stroke-linecap="round" stroke-miterlimit="4" stroke-width="2.88" d="M16 6.667v18.667"></path>
        <path stroke-linejoin="round" stroke-linecap="round" stroke-miterlimit="4" stroke-width="2.88" d="M6.666 16h18.667"></path>
    </symbol>

    <symbol id="icon-checkbox" viewBox="0 0 32 32">
        <path stroke-linejoin="miter" stroke-linecap="butt" stroke-miterlimit="4" stroke-width="0.4923" d="M4.817 15.39l-0.17-0.162-0.17 0.16-2.373 2.25 0.187 0.18 8.775 8.369 0.17-0.162 18.658-17.799-0.187-0.177-2.341-2.233-0.17 0.162-16.13 15.375-6.25-5.962z"></path>
    </symbol>

    <symbol fill="#000000" id="icon-ascending" xmlns="http://www.w3.org/2000/svg" viewBox="0 0 24 24">
        <path id="secondary" fill="#1768c5" d="M10.71,7.29l-4-4a1,1,0,0,0-1.42,0l-4,4A1,1,0,0,0,2.71,8.71L5,6.41V19a1,1,0,0,0,2,0V6.41l2.29,2.3a1,1,0,0,0,1.42,0A1,1,0,0,0,10.71,7.29Z"></path>
        <path id="primary" d="M20,18H10a1,1,0,0,1,0-2H20a1,1,0,0,1,0,2Zm0-5H13a1,1,0,0,1,0-2h7a1,1,0,0,1,0,2Zm0-5H15a1,1,0,0,1,0-2h5a1,1,0,0,1,0,2Z"></path>
    </symbol>
    
    <symbol fill="#000000" id="icon-descending" xmlns="http://www.w3.org/2000/svg" viewBox="0 0 24 24">
        <path id="secondary" fill="#1768c5" d="M10.71,14.29a1,1,0,0,0-1.42,0L7,16.59V4A1,1,0,0,0,5,4V16.59l-2.29-2.3a1,1,0,0,0-1.42,1.42l4,4a1,1,0,0,0,1.42,0l4-4A1,1,0,0,0,10.71,14.29Z"></path>
        <path id="primary" d="M20,17H15a1,1,0,0,1,0-2h5a1,1,0,0,1,0,2Zm0-5H13a1,1,0,0,1,0-2h7a1,1,0,0,1,0,2Zm0-5H10a1,1,0,0,1,0-2H20a1,1,0,0,1,0,2Z"></path>
    </symbol>

</defs>
</svg>